<svg id="visual" viewBox="0 0 900 600" width="900" height="600" xmlns="http://www.w3.org/2000/svg" xmlns:xlink="http://www.w3.org/1999/xlink" version="1.1"><rect x="0" y="0" width="900" height="600" fill="#ffffff"></rect><g transform="translate(456.02557895558215 305.2578363494878)"><path d="M188.8 -219.9C216.8 -201.4 192.6 -115.6 198.3 -41.2C204.1 33.2 239.7 96.1 225.2 138.2C210.6 180.2 145.8 201.5 87.3 209.6C28.8 217.7 -23.4 212.7 -78.7 199.7C-134.1 186.8 -192.6 165.9 -219.9 124.2C-247.2 82.6 -243.3 20.2 -232.6 -41.1C-221.9 -102.4 -204.5 -162.7 -164.6 -179.1C-124.7 -195.5 -62.4 -168.1 9 -178.8C80.3 -189.5 160.7 -238.4 188.8 -219.9" fill="#CCCCCC"></path></g></svg>